<?xml version="1.0" encoding="UTF-8"?>
<svg id="Draw" xmlns="http://www.w3.org/2000/svg" viewBox="0 0 141.73 141.73">
  <defs>
    <style>
      .cls-1 {
        fill: currentColor;
        stroke-width: 0px;
      }
    </style>
  </defs>
  <circle class="cls-1" cx="79.14" cy="95.9" r="7.72"/>
  <path class="cls-1" d="M15.68,59.76l37.47,3.87,12.43,20.46-9.69,28.07c-.54,1.57.29,3.27,1.86,3.82.32.11.66.17.98.17,1.24,0,2.41-.78,2.84-2.02l9.48-27.45,7.81-4.75,24.32,22.39c1.22,1.12,3.12,1.04,4.24-.17,1.12-1.22,1.04-3.12-.17-4.24l-26.09-24.01-11.86-19.52,15.86-34.74c.8-1.76.03-3.83-1.73-4.64-1.76-.81-3.83-.03-4.64,1.73l-16.68,36.55-5.76,1.65-39.94-4.12c-1.92-.2-3.64,1.2-3.84,3.12s1.2,3.64,3.12,3.84Z"/>
  <path class="cls-1" d="M125.69,119.06H16.04c-1.38,0-2.5,1.12-2.5,2.5s1.12,2.5,2.5,2.5h109.65c1.38,0,2.5-1.12,2.5-2.5s-1.12-2.5-2.5-2.5Z"/>
</svg>