<?xml version="1.0" encoding="UTF-8"?>
<svg id="Draw" xmlns="http://www.w3.org/2000/svg" viewBox="0 0 141.73 141.73">
  <defs>
    <style>
      .cls-1 {
        fill: #231f20;
        stroke-width: 0px;
      }
    </style>
  </defs>
  <circle class="cls-1" cx="77.9" cy="24.25" r="7.72"/>
  <path class="cls-1" d="M62.83,92.94c1.73,0,3.14-1.4,3.14-3.14v-29.92c0-.7.23-1.38.66-1.93l11.44-14.71c.33-.42.52-.88.61-1.35l3.14.22,26.36-3.71c1.91-.27,3.25-2.04,2.98-3.95s-2.04-3.25-3.95-2.98l-25.64,3.6-12.1-.84-26.77-9.83c-1.81-.67-3.83.26-4.49,2.08-.67,1.81.27,3.83,2.08,4.49l.38.14c-1.52.22-2.69,1.51-2.69,3.09v17.03c0,1.34.86,2.54,2.13,2.97l16.91,5.74c1.27.43,2.13,1.63,2.13,2.97v26.87c0,1.73,1.4,3.14,3.14,3.14H17.21v9.24h10.93v23.03h8.9v-23.03h87.48v-9.24h-61.69ZM56.49,49.74c-.76.74-1.84,1.06-2.87.83l-6.91-1.51c-1.44-.32-2.47-1.59-2.47-3.07v-11.78c0-.8-.31-1.52-.79-2.07l22.52,8.27-9.48,9.33Z"/>
</svg>