<?xml version="1.0" encoding="UTF-8"?>
<svg id="Draw" xmlns="http://www.w3.org/2000/svg" viewBox="0 0 141.73 141.73">
  <defs>
    <style>
      .cls-1 {
        fill: #231f20;
        stroke-width: 0px;
      }
    </style>
  </defs>
  <path class="cls-1" d="M124.25,11.37c-1.38,0-2.5,1.12-2.5,2.5v2.05c-33.52,3-67.73,3-101.76,0v-2.05c0-1.38-1.12-2.5-2.5-2.5s-2.5,1.12-2.5,2.5v114c0,1.38,1.12,2.5,2.5,2.5s2.5-1.12,2.5-2.5V20.94c8.44.74,16.9,1.3,25.35,1.67l17.81,28.93v20.16l-34.61-14.54c-1.78-.75-3.83.09-4.58,1.87-.75,1.78.09,3.83,1.87,4.58l37.32,15.67h0s7.72,0,7.72,0h7.72s0,0,0,0l37.32-15.67c1.78-.75,2.62-2.8,1.87-4.58-.75-1.78-2.8-2.62-4.58-1.87l-34.61,14.54v-20.16l17.8-28.92c8.49-.37,16.94-.93,25.36-1.68v106.93c0,1.38,1.12,2.5,2.5,2.5s2.5-1.12,2.5-2.5V13.87c0-1.38-1.12-2.5-2.5-2.5ZM76.21,45.87h-10.69l-14.17-23.02c6.58.22,13.15.34,19.72.34s12.88-.11,19.3-.33l-14.16,23.01Z"/>
  <circle class="cls-1" cx="70.87" cy="33.73" r="7.72"/>
</svg>