<?xml version="1.0" encoding="UTF-8"?>
<svg id="Draw" xmlns="http://www.w3.org/2000/svg" viewBox="0 0 141.73 141.73">
  <defs>
    <style>
      .cls-1 {
        fill: #231f20;
        stroke-width: 0px;
      }
    </style>
  </defs>
  <circle class="cls-1" cx="70.18" cy="51.07" r="7.72"/>
  <path class="cls-1" d="M121.35,6.64c-1.38,0-2.5,1.12-2.5,2.5v.2c-7.59.59-15.19,1.04-22.79,1.35v-.07s-1,.06-1,.06v.05c-16.18.63-32.34.64-48.38.01v-.06s-.99-.06-.99-.06v.08c-7.63-.31-15.23-.77-22.79-1.36v-.21c0-1.38-1.12-2.5-2.5-2.5s-2.5,1.12-2.5,2.5v123.45c0,1.38,1.12,2.5,2.5,2.5s2.5-1.12,2.5-2.5V12.36c7.51.59,15.05,1.04,22.62,1.35l-2.46,43.3-.82-.13c-1.36-.22-2.65.71-2.86,2.07-.22,1.36.71,2.65,2.07,2.86l21.52,3.45h.4v50.63c0,.84.68,1.52,1.52,1.52h2.97c.84,0,1.52-.68,1.52-1.52v-31.24c0-.84.68-1.52,1.52-1.52h0c.84,0,1.52.68,1.52,1.52v31.24c0,.84.68,1.52,1.52,1.52h2.97c.84,0,1.52-.68,1.52-1.52v-50.6h.2l21.71-3.48c1.36-.22,2.29-1.5,2.07-2.86-.22-1.36-1.5-2.29-2.86-2.07l-.82.13-2.46-43.32c7.54-.31,15.08-.76,22.62-1.34v120.24c0,1.38,1.12,2.5,2.5,2.5s2.5-1.12,2.5-2.5V9.14c0-1.38-1.12-2.5-2.5-2.5ZM97.69,57.17l-19.51,3.13h-6.63c-.24,0-.47.04-.69.11-.22-.06-.45-.11-.69-.11h-6.63l-19.51-3.13,2.46-43.43c8.02.31,16.07.47,24.13.47s16.39-.16,24.59-.49l2.47,43.44Z"/>
</svg>