<?xml version="1.0" encoding="UTF-8"?>
<svg id="Draw" xmlns="http://www.w3.org/2000/svg" viewBox="0 0 141.73 141.73">
  <defs>
    <style>
      .cls-1 {
        fill: currentColor;
        stroke-width: 0px;
      }
    </style>
  </defs>
  <path class="cls-1" d="M123.52,76.66H50.41l1.11-7.58c.42-2.85,4.05-3.8,5.81-1.53l3.56,4.6c.62.8,1.57,1.27,2.58,1.27h41.34c1.8,0,3.26-1.46,3.26-3.26v-3.06c0-1.8-1.46-3.26-3.26-3.26h-32.01c-1.19,0-2.29-.65-2.86-1.7l-11.56-21.15c-.57-1.05-1.67-1.7-2.86-1.7h-3.19c-1.61,0-2.98,1.18-3.23,2.77l-5.28,34.61h-25.61c-1.1,0-2,.9-2,2s.9,2,2,2h9.5v35.17l-2.69,3.46c-.5.64-.04,1.57.77,1.57h6.85c.81,0,1.27-.93.77-1.57l-2.69-3.46v-35.17h13.27c.57.94,1.59,1.59,2.79,1.59s2.22-.63,2.79-1.59h61.46v35.17l-2.69,3.46c-.5.64-.04,1.57.77,1.57h6.85c.81,0,1.27-.93.77-1.57l-2.69-3.47v-35.17h9.5c1.1,0,2-.9,2-2s-.9-2-2-2Z"/>
  <circle class="cls-1" cx="58.56" cy="28.59" r="7.72"/>
</svg>