<?xml version="1.0" encoding="UTF-8"?>
<svg id="Draw" xmlns="http://www.w3.org/2000/svg" viewBox="0 0 141.73 141.73">
  <defs>
    <style>
      .cls-1 {
        fill: #231f20;
        stroke-width: 0px;
      }
    </style>
  </defs>
  <path class="cls-1" d="M91.76,88.85c1.47-.74,2.48-2.25,2.48-4v-4.94h-9v4.94c0,1.67.92,3.11,2.28,3.89v5.68h-39.1v-10.97h-4.24v10.97h-14.79v20.17h77.17v-20.17h-14.79v-5.57Z"/>
  <path class="cls-1" d="M117.73,71.78h-41.38l8.9-9.42v8.29h9v-17.81l-13.97-13.34-29.88-12.06c-1.9-.77-4.06.14-4.85,2.03-.77,1.85.06,3.98,1.88,4.82l27.02,12.56-16.99,21.37-1.29-.29-30.7-14.22c-1.75-.81-3.83-.05-4.65,1.7-.81,1.75-.05,3.83,1.7,4.65l31.04,14.38c.23.1.46.19.71.24l18,4.04c.25.06.51.08.77.08h44.69c1.93,0,3.5-1.57,3.5-3.5s-1.57-3.5-3.5-3.5Z"/>
  <circle class="cls-1" cx="96.31" cy="36.45" r="7.72"/>
</svg>