<?xml version="1.0" encoding="UTF-8"?>
<svg id="Draw" xmlns="http://www.w3.org/2000/svg" viewBox="0 0 141.73 141.73">
  <defs>
    <style>
      .cls-1 {
        fill: currentColor;
        stroke-width: 0px;
      }
    </style>
  </defs>
  <circle class="cls-1" cx="70.87" cy="27.73" r="5.72" transform="translate(18.13 82.59) rotate(-67.5)"/>
  <path class="cls-1" d="M124.25,62.22c-1.38,0-2.5,1.12-2.5,2.5v1.84h-8.84V13.02c0-1.38-1.12-2.5-2.5-2.5s-2.5,1.12-2.5,2.5v.93c-24.41,2.15-49.3,2.15-74.07,0v-.93c0-1.38-1.12-2.5-2.5-2.5s-2.5,1.12-2.5,2.5v53.54h-8.84v-1.84c0-1.38-1.12-2.5-2.5-2.5s-2.5,1.12-2.5,2.5v64c0,1.38,1.12,2.5,2.5,2.5s2.5-1.12,2.5-2.5v-57.16h8.84v25.89c0,1.38,1.12,2.5,2.5,2.5s2.5-1.12,2.5-2.5v-25.89h74.07v25.89c0,1.38,1.12,2.5,2.5,2.5s2.5-1.12,2.5-2.5v-25.89h8.84v57.16c0,1.38,1.12,2.5,2.5,2.5s2.5-1.12,2.5-2.5v-64c0-1.38-1.12-2.5-2.5-2.5ZM71.02,20.57c4.38,0,8.75-.07,13.11-.21l-10.07,16.36h-6.4l-10.07-16.37c4.48.14,8.95.21,13.42.21ZM33.83,66.56V18.96c5.91.51,11.84.9,17.76,1.17l13.56,22.03v13.69l-25.63-10.77c-1.32-.56-2.84.07-3.39,1.39-.55,1.32.07,2.84,1.39,3.39l27.64,11.61h0s5.72,0,5.72,0h5.72s0,0,0,0l27.64-11.61c1.32-.55,1.94-2.07,1.39-3.39-.56-1.32-2.07-1.94-3.39-1.39l-25.63,10.77v-13.69l13.55-22.02c5.94-.27,11.87-.66,17.76-1.17v47.6H33.83Z"/>
</svg>