<?xml version="1.0" encoding="UTF-8"?>
<svg id="Draw" xmlns="http://www.w3.org/2000/svg" viewBox="0 0 141.73 141.73">
  <defs>
    <style>
      .cls-1 {
        fill: currentColor;
        stroke-width: 0px;
      }
    </style>
  </defs>
  <path class="cls-1" d="M68.9,84.99l9.25-8.43c.72-.66,1.66-1.02,2.64-1.02h41.32c2.17,0,3.92,1.76,3.92,3.92v4.36c0,2.17-1.76,3.92-3.92,3.92h-16.8s0,20.76,0,20.76h9.55v5.28h-34.83v-5.28h9.55s0-20.76,0-20.76h-9.08c-.8,0-1.59.25-2.25.71l-3.8,2.66c-.66.46-1.44.71-2.25.71h-.67c-2.17,0-3.92-1.76-3.92-3.92,0-1.1.46-2.16,1.28-2.9Z"/>
  <path class="cls-1" d="M97.39,69.01l-9.93-27.89c-.96-2.69-2.96-4.88-5.55-6.07l-12.8-5.89c-1.73-.8-3.62-1.21-5.52-1.21h-4.8c-2.85,0-5.66.69-8.19,2.01l-33.28,17.42c-1.73.91-2.16,3.19-.89,4.66l.45.53c.85.99,2.24,1.32,3.45.82l32.14-13.26c.35-.14.72-.22,1.1-.23l6-.11c.42,0,.84.07,1.23.23l19.63,8.23c.7.29,1.27.84,1.59,1.54l9.77,21.49c.49,1.08,1.57,1.77,2.76,1.77h0c2.09,0,3.55-2.07,2.85-4.04Z"/>
  <circle class="cls-1" cx="97.59" cy="37.59" r="7.72"/>
</svg>